<svg xmlns="http://www.w3.org/2000/svg" viewBox="0 0 64 64"><path d="M11.953 42.034q0-1.003.683-1.729t1.665-.726 1.676.726.694 1.729q0 1.025-.694 1.74t-1.676.715-1.665-.715-.683-1.74zm0-9.608q0-1.003.683-1.719t1.665-.715 1.676.715.694 1.719-.694 1.719-1.676.715-1.665-.715-.683-1.719zm0-9.628q0-1.003.683-1.719t1.665-.715 1.676.715.694 1.719q0 1.025-.694 1.751t-1.676.726-1.665-.726-.683-1.751zm7.6 21.691v-4.91h24.659v4.91h-24.659zm0-9.629v-4.889h32.494v4.889h-32.494zm0-9.586v-4.91h28.416v4.91h-28.416z" fill="#505050"/></svg>